<svg width="23" height="23" viewBox="0 0 23 23" fill="none" xmlns="http://www.w3.org/2000/svg">
<path d="M10.4455 2.32215C10.7344 2.1278 11.0707 2.017 11.4178 2.0018C11.7648 1.98661 12.1093 2.0676 12.4139 2.23597L12.5536 2.32215L20.1535 7.42864C20.3916 7.58856 20.5908 7.80062 20.7363 8.04899C20.8817 8.29736 20.9696 8.57562 20.9933 8.86301L21 9.02196V18.0849C21.0002 18.5681 20.8191 19.0334 20.4932 19.3877C20.1672 19.742 19.7205 19.959 19.2425 19.9952L19.1 20H3.9C3.42065 20.0002 2.95896 19.8177 2.60748 19.4892C2.256 19.1606 2.0407 18.7104 2.00475 18.2286L2 18.0849V9.02196C2 8.73365 2.06459 8.44907 2.18895 8.18943C2.31331 7.92979 2.49422 7.7018 2.7182 7.52248L2.84645 7.42864L10.4455 2.32215ZM11.5 3.91548L4.66285 8.50969L11.5 13.1039L18.3372 8.50969L11.5 3.91548Z" fill="black"/>
</svg>
