<svg width="36" height="36" viewBox="0 0 36 36" fill="none" xmlns="http://www.w3.org/2000/svg">
<g clip-path="url(#clip0_106_38)">
<path d="M18 15.75C12.4165 15.75 4.50002 24.3816 4.50002 29.8301C4.50002 32.284 6.3851 33.75 9.54424 33.75C12.9783 33.75 15.2459 31.9866 18 31.9866C20.7781 31.9866 23.052 33.75 26.4558 33.75C29.6149 33.75 31.5 32.284 31.5 29.8301C31.5 24.3816 23.5835 15.75 18 15.75ZM7.6444 14.8634C6.91315 12.427 4.66033 10.8492 2.61283 11.3386C0.565333 11.828 -0.501307 14.1996 0.229943 16.6359C0.961193 19.0723 3.21401 20.6501 5.26151 20.1607C7.30901 19.6713 8.37565 17.2997 7.6444 14.8634ZM13.6013 13.4023C15.7767 12.8299 16.8652 9.89087 16.0327 6.8379C15.2002 3.78493 12.7617 1.77469 10.5863 2.34704C8.4108 2.91938 7.32236 5.85844 8.15486 8.91141C8.98736 11.9644 11.4265 13.9753 13.6013 13.4023ZM33.3865 11.3393C31.339 10.8499 29.0869 12.4277 28.3549 14.8641C27.6237 17.3004 28.6903 19.672 30.7378 20.1614C32.7853 20.6508 35.0374 19.073 35.7694 16.6366C36.5006 14.2003 35.434 11.8287 33.3865 11.3393ZM22.3988 13.4023C24.5742 13.9746 27.0127 11.9644 27.8452 8.91141C28.6777 5.85844 27.5892 2.92009 25.4138 2.34704C23.2383 1.77399 20.7999 3.78493 19.9674 6.8379C19.1349 9.89087 20.2233 12.8299 22.3988 13.4023Z" fill="black"/>
</g>
<defs>
<clipPath id="clip0_106_38">
<rect width="36" height="36" fill="white"/>
</clipPath>
</defs>
</svg>
