<svg width="72" height="72" viewBox="0 0 72 72" fill="none" xmlns="http://www.w3.org/2000/svg">
<path d="M33.57 18.5006C37.2881 21.0038 40.5844 16.8356 40.0613 12.7744C39.8756 11.3738 39.3469 10.0913 38.4581 9.11251C37.0069 7.50376 33.9806 7.33501 32.8781 9.03376C31.0894 11.7675 30.3581 16.335 33.57 18.5006ZM23.3438 15.165C27.3094 17.2125 30.2288 12.645 29.3231 8.63438C29.0138 7.26188 28.3613 6.03563 27.3825 5.16376C25.7794 3.72376 22.7419 3.92063 21.7856 5.75438C20.2388 8.70188 19.935 13.3819 23.3438 15.165ZM5.89501 14.5575C4.12876 13.4438 1.33314 14.7713 0.630012 16.8188C0.202512 18.0619 0.230637 19.4456 0.641262 20.8013C1.86189 24.7331 6.73876 27.2475 9.21939 23.5013C11.3569 20.295 8.74126 16.3688 5.89501 14.5575ZM17.2069 16.5544C19.5469 13.6463 17.3531 9.46126 14.7544 7.32376C13.14 6.00751 10.3219 6.96376 9.47251 8.89876C8.95501 10.0631 8.87626 11.4413 9.15751 12.825C9.99564 16.8413 14.5013 19.935 17.2069 16.5544ZM34.0931 26.1394C32.8444 22.1175 28.3219 20.3738 25.1606 19.9744C20.4469 19.3838 15.3225 21.8925 12.9994 26.8425C12.0656 28.8338 10.7438 32.3438 11.9981 34.5881C13.7306 37.665 18.0844 35.6963 20.1769 34.5825C22.6575 33.2381 24.6319 32.0513 27.4838 32.5069L27.7875 32.5575C31.3931 33.0244 35.8763 31.8544 34.0931 26.1394ZM38.0869 48.9713C36.2194 48.1781 33.8119 50.0119 33.5025 52.155C33.3169 53.4544 33.5925 54.8213 34.2225 56.0813C36.0506 59.7431 41.1131 61.3631 42.8006 57.2063C44.2519 53.6175 41.0906 50.2369 38.0869 48.9713ZM49.4156 48.7294C51.2494 45.3488 48.3863 41.6363 45.4556 40.05C43.6444 39.0656 41.0119 40.5956 40.4775 42.6881C40.1569 43.9538 40.3031 45.3375 40.815 46.6481C42.3 50.4788 47.2725 52.6444 49.4156 48.7294ZM71.3981 40.7194C70.9763 39.3638 70.2338 38.205 69.1875 37.4063C67.4606 36.1013 64.4006 36.5625 63.5569 38.475C62.2069 41.5631 62.2238 46.2825 65.7956 47.7506C69.9413 49.4719 72.585 44.6569 71.3981 40.7194ZM55.2825 46.4513C59.4113 47.745 61.425 42.66 59.8725 38.8575C59.3381 37.5525 58.5 36.45 57.42 35.7694C55.6369 34.6444 52.7625 35.4206 52.1606 37.4175C51.2044 40.6463 51.7163 45.3431 55.2825 46.4513ZM64.5131 52.6331C59.8275 49.8263 54.1688 50.6138 50.5913 53.73C48.1894 55.8281 45.4163 59.7938 46.6256 63.8325C48.3413 69.57 52.7119 68.0344 55.4344 65.6325L55.665 65.4188C57.7744 63.4556 60.075 63.3319 62.8819 63.0675C65.2388 62.8256 69.9581 62.0213 69.6656 58.5056C69.4631 55.935 66.3975 53.7638 64.5131 52.6331Z" fill="#78A3AD"/>
</svg>
