<svg width="24" height="24" viewBox="0 0 24 24" fill="none" xmlns="http://www.w3.org/2000/svg">
<path d="M15.952 12.1891L15.4464 12.6954C15.4464 12.6954 14.2431 13.898 10.9598 10.6144C7.67647 7.33068 8.87979 6.12809 8.87979 6.12809L9.19757 5.80844C9.98312 5.02384 10.0576 3.76313 9.37201 2.84218L7.97202 0.961161C7.12314 -0.178848 5.48426 -0.329731 4.51205 0.642629L2.76761 2.38617C2.2865 2.869 1.96428 3.49265 2.00317 4.1856C2.10317 5.95932 2.90094 9.77388 7.3498 14.2244C12.0687 18.9431 16.4964 19.1309 18.3064 18.961C18.8797 18.9074 19.3775 18.6145 19.7786 18.2122L21.3564 16.6341C22.423 15.5689 22.123 13.7416 20.7586 12.9961L18.6364 11.8348C17.7408 11.3453 16.652 11.4895 15.952 12.1891Z" fill="black"/>
</svg>
